<svg width="227" height="173" viewBox="0 0 227 173" fill="none" xmlns="http://www.w3.org/2000/svg">
<g filter="url(#filter0_di_826_51)">
<path d="M4 16.7097C4 7.99809 11.3961 1.11887 20.0849 1.74895L208.107 15.3837C216.536 15.995 222.797 23.4463 221.946 31.855L212.365 126.51C211.59 134.171 205.141 140 197.442 140H134.957C130.545 140 126.356 141.943 123.506 145.311L108.17 163.436C107.013 164.803 104.924 164.858 103.696 163.555L85.9411 144.713C83.1068 141.705 79.1571 140 75.0242 140H19C10.7157 140 4 133.284 4 125V16.7097Z" fill="#785AEF"/>
</g>
<path d="M35.0595 72.6563L35.5725 85.1573H32.5215L33.0075 72.6563H35.0595ZM34.0605 66.5543C34.5645 66.5543 34.9785 66.7253 35.3025 67.0673C35.6265 67.4093 35.7885 67.8233 35.7885 68.3093C35.7885 68.7773 35.6265 69.1823 35.3025 69.5243C34.9785 69.8483 34.5645 70.0103 34.0605 70.0103C33.5565 70.0103 33.1335 69.8483 32.7915 69.5243C32.4495 69.1823 32.2785 68.7773 32.2785 68.3093C32.2785 67.8233 32.4495 67.4093 32.7915 67.0673C33.1335 66.7253 33.5565 66.5543 34.0605 66.5543ZM54.0291 62.0993H56.7291V80.9993H54.0291V62.0993ZM43.1751 80.9993H40.4751V62.0993H43.1751V80.9993ZM54.2721 72.5753H42.9051V70.2263H54.2721V72.5753ZM70.8913 80.9993V77.9753L70.7563 77.4083V72.2513C70.7563 71.1533 70.4323 70.3073 69.7843 69.7133C69.1543 69.1013 68.2003 68.7953 66.9223 68.7953C66.0763 68.7953 65.2483 68.9393 64.4383 69.2273C63.6283 69.4973 62.9443 69.8663 62.3863 70.3343L61.3063 68.3903C62.0443 67.7963 62.9263 67.3463 63.9523 67.0403C64.9963 66.7163 66.0853 66.5543 67.2193 66.5543C69.1813 66.5543 70.6933 67.0313 71.7553 67.9853C72.8173 68.9393 73.3483 70.3973 73.3483 72.3593V80.9993H70.8913ZM66.1933 81.1613C65.1313 81.1613 64.1953 80.9813 63.3853 80.6213C62.5933 80.2613 61.9813 79.7663 61.5493 79.1363C61.1173 78.4883 60.9013 77.7593 60.9013 76.9493C60.9013 76.1753 61.0813 75.4733 61.4413 74.8433C61.8193 74.2133 62.4223 73.7093 63.2503 73.3313C64.0963 72.9533 65.2303 72.7643 66.6523 72.7643H71.1883V74.6273H66.7603C65.4643 74.6273 64.5913 74.8433 64.1413 75.2753C63.6913 75.7073 63.4663 76.2293 63.4663 76.8413C63.4663 77.5433 63.7453 78.1103 64.3033 78.5423C64.8613 78.9563 65.6353 79.1633 66.6253 79.1633C67.5973 79.1633 68.4433 78.9473 69.1633 78.5153C69.9013 78.0833 70.4323 77.4533 70.7563 76.6253L71.2693 78.4073C70.9273 79.2533 70.3243 79.9283 69.4603 80.4323C68.5963 80.9183 67.5073 81.1613 66.1933 81.1613ZM85.732 81.1613C84.508 81.1613 83.401 80.8913 82.411 80.3513C81.439 79.7933 80.665 78.9743 80.089 77.8943C79.531 76.8143 79.252 75.4643 79.252 73.8443C79.252 72.2243 79.54 70.8743 80.116 69.7943C80.71 68.7143 81.493 67.9043 82.465 67.3643C83.455 66.8243 84.544 66.5543 85.732 66.5543C87.136 66.5543 88.378 66.8603 89.458 67.4723C90.538 68.0843 91.393 68.9393 92.023 70.0373C92.653 71.1173 92.968 72.3863 92.968 73.8443C92.968 75.3023 92.653 76.5803 92.023 77.6783C91.393 78.7763 90.538 79.6313 89.458 80.2433C88.378 80.8553 87.136 81.1613 85.732 81.1613ZM78.145 80.9993V60.9653H80.737V70.4963L80.467 73.8173L80.629 77.1383V80.9993H78.145ZM85.516 78.8933C86.434 78.8933 87.253 78.6863 87.973 78.2723C88.711 77.8583 89.287 77.2733 89.701 76.5173C90.133 75.7433 90.349 74.8523 90.349 73.8443C90.349 72.8183 90.133 71.9363 89.701 71.1983C89.287 70.4423 88.711 69.8573 87.973 69.4433C87.253 69.0293 86.434 68.8223 85.516 68.8223C84.616 68.8223 83.797 69.0293 83.059 69.4433C82.339 69.8573 81.763 70.4423 81.331 71.1983C80.917 71.9363 80.71 72.8183 80.71 73.8443C80.71 74.8523 80.917 75.7433 81.331 76.5173C81.763 77.2733 82.339 77.8583 83.059 78.2723C83.797 78.6863 84.616 78.8933 85.516 78.8933ZM96.5493 80.9993V60.9653H99.1413V80.9993H96.5493ZM110.462 81.1613C108.932 81.1613 107.582 80.8463 106.412 80.2163C105.26 79.5863 104.36 78.7223 103.712 77.6243C103.082 76.5263 102.767 75.2663 102.767 73.8443C102.767 72.4223 103.073 71.1623 103.685 70.0643C104.315 68.9663 105.17 68.1113 106.25 67.4993C107.348 66.8693 108.581 66.5543 109.949 66.5543C111.335 66.5543 112.559 66.8603 113.621 67.4723C114.683 68.0843 115.511 68.9483 116.105 70.0643C116.717 71.1623 117.023 72.4493 117.023 73.9253C117.023 74.0333 117.014 74.1593 116.996 74.3033C116.996 74.4473 116.987 74.5823 116.969 74.7083H104.792V72.8453H115.619L114.566 73.4933C114.584 72.5753 114.395 71.7563 113.999 71.0363C113.603 70.3163 113.054 69.7583 112.352 69.3623C111.668 68.9483 110.867 68.7413 109.949 68.7413C109.049 68.7413 108.248 68.9483 107.546 69.3623C106.844 69.7583 106.295 70.3253 105.899 71.0633C105.503 71.7833 105.305 72.6113 105.305 73.5473V73.9793C105.305 74.9333 105.521 75.7883 105.953 76.5443C106.403 77.2823 107.024 77.8583 107.816 78.2723C108.608 78.6863 109.517 78.8933 110.543 78.8933C111.389 78.8933 112.154 78.7493 112.838 78.4613C113.54 78.1733 114.152 77.7413 114.674 77.1653L116.105 78.8393C115.457 79.5953 114.647 80.1713 113.675 80.5673C112.721 80.9633 111.65 81.1613 110.462 81.1613ZM138.524 66.5543C139.676 66.5543 140.693 66.7793 141.575 67.2293C142.457 67.6793 143.141 68.3633 143.627 69.2813C144.131 70.1993 144.383 71.3603 144.383 72.7643V80.9993H141.791V73.0613C141.791 71.6753 141.467 70.6313 140.819 69.9293C140.171 69.2273 139.262 68.8763 138.092 68.8763C137.228 68.8763 136.472 69.0563 135.824 69.4163C135.176 69.7763 134.672 70.3073 134.312 71.0093C133.97 71.7113 133.799 72.5843 133.799 73.6283V80.9993H131.207V73.0613C131.207 71.6753 130.883 70.6313 130.235 69.9293C129.605 69.2273 128.696 68.8763 127.508 68.8763C126.662 68.8763 125.915 69.0563 125.267 69.4163C124.619 69.7763 124.115 70.3073 123.755 71.0093C123.395 71.7113 123.215 72.5843 123.215 73.6283V80.9993H120.623V66.6893H123.107V70.4963L122.702 69.5243C123.152 68.5883 123.845 67.8593 124.781 67.3373C125.717 66.8153 126.806 66.5543 128.048 66.5543C129.416 66.5543 130.595 66.8963 131.585 67.5803C132.575 68.2463 133.223 69.2633 133.529 70.6313L132.476 70.1993C132.908 69.1013 133.664 68.2193 134.744 67.5533C135.824 66.8873 137.084 66.5543 138.524 66.5543ZM155.281 81.1613C153.841 81.1613 152.563 80.8463 151.447 80.2163C150.331 79.5863 149.449 78.7223 148.801 77.6243C148.153 76.5083 147.829 75.2483 147.829 73.8443C147.829 72.4223 148.153 71.1623 148.801 70.0643C149.449 68.9663 150.331 68.1113 151.447 67.4993C152.563 66.8693 153.841 66.5543 155.281 66.5543C156.703 66.5543 157.972 66.8693 159.088 67.4993C160.222 68.1113 161.104 68.9663 161.734 70.0643C162.382 71.1443 162.706 72.4043 162.706 73.8443C162.706 75.2663 162.382 76.5263 161.734 77.6243C161.104 78.7223 160.222 79.5863 159.088 80.2163C157.972 80.8463 156.703 81.1613 155.281 81.1613ZM155.281 78.8933C156.199 78.8933 157.018 78.6863 157.738 78.2723C158.476 77.8583 159.052 77.2733 159.466 76.5173C159.88 75.7433 160.087 74.8523 160.087 73.8443C160.087 72.8183 159.88 71.9363 159.466 71.1983C159.052 70.4423 158.476 69.8573 157.738 69.4433C157.018 69.0293 156.199 68.8223 155.281 68.8223C154.363 68.8223 153.544 69.0293 152.824 69.4433C152.104 69.8573 151.528 70.4423 151.096 71.1983C150.664 71.9363 150.448 72.8183 150.448 73.8443C150.448 74.8523 150.664 75.7433 151.096 76.5173C151.528 77.2733 152.104 77.8583 152.824 78.2723C153.544 78.6863 154.363 78.8933 155.281 78.8933ZM170.394 81.1613C169.206 81.1613 168.072 80.9993 166.992 80.6753C165.93 80.3513 165.093 79.9553 164.481 79.4873L165.561 77.4353C166.173 77.8493 166.929 78.2003 167.829 78.4883C168.729 78.7763 169.647 78.9203 170.583 78.9203C171.789 78.9203 172.653 78.7493 173.175 78.4073C173.715 78.0653 173.985 77.5883 173.985 76.9763C173.985 76.5263 173.823 76.1753 173.499 75.9233C173.175 75.6713 172.743 75.4823 172.203 75.3563C171.681 75.2303 171.096 75.1223 170.448 75.0323C169.8 74.9243 169.152 74.7983 168.504 74.6543C167.856 74.4923 167.262 74.2763 166.722 74.0063C166.182 73.7183 165.75 73.3313 165.426 72.8453C165.102 72.3413 164.94 71.6753 164.94 70.8473C164.94 69.9833 165.183 69.2273 165.669 68.5793C166.155 67.9313 166.839 67.4363 167.721 67.0943C168.621 66.7343 169.683 66.5543 170.907 66.5543C171.843 66.5543 172.788 66.6713 173.742 66.9053C174.714 67.1213 175.506 67.4363 176.118 67.8503L175.011 69.9023C174.363 69.4703 173.688 69.1733 172.986 69.0113C172.284 68.8493 171.582 68.7683 170.88 68.7683C169.746 68.7683 168.9 68.9573 168.342 69.3353C167.784 69.6953 167.505 70.1633 167.505 70.7393C167.505 71.2253 167.667 71.6033 167.991 71.8733C168.333 72.1253 168.765 72.3233 169.287 72.4673C169.827 72.6113 170.421 72.7373 171.069 72.8453C171.717 72.9353 172.365 73.0613 173.013 73.2233C173.661 73.3673 174.246 73.5743 174.768 73.8443C175.308 74.1143 175.74 74.4923 176.064 74.9783C176.406 75.4643 176.577 76.1123 176.577 76.9223C176.577 77.7863 176.325 78.5333 175.821 79.1633C175.317 79.7933 174.606 80.2883 173.688 80.6483C172.77 80.9903 171.672 81.1613 170.394 81.1613ZM179.952 75.0323L179.466 62.0993H182.517L182.004 75.0323H179.952ZM181.005 81.1613C180.501 81.1613 180.078 80.9903 179.736 80.6483C179.394 80.3063 179.223 79.9013 179.223 79.4333C179.223 78.9293 179.394 78.5153 179.736 78.1913C180.078 77.8673 180.501 77.7053 181.005 77.7053C181.509 77.7053 181.923 77.8673 182.247 78.1913C182.571 78.5153 182.733 78.9293 182.733 79.4333C182.733 79.9013 182.571 80.3063 182.247 80.6483C181.923 80.9903 181.509 81.1613 181.005 81.1613Z" fill="white"/>
<defs>
<filter id="filter0_di_826_51" x="0" y="1.70898" width="226.023" height="170.789" filterUnits="userSpaceOnUse" color-interpolation-filters="sRGB">
<feFlood flood-opacity="0" result="BackgroundImageFix"/>
<feColorMatrix in="SourceAlpha" type="matrix" values="0 0 0 0 0 0 0 0 0 0 0 0 0 0 0 0 0 0 127 0" result="hardAlpha"/>
<feOffset dy="4"/>
<feGaussianBlur stdDeviation="2"/>
<feComposite in2="hardAlpha" operator="out"/>
<feColorMatrix type="matrix" values="0 0 0 0 0 0 0 0 0 0 0 0 0 0 0 0 0 0 0.25 0"/>
<feBlend mode="normal" in2="BackgroundImageFix" result="effect1_dropShadow_826_51"/>
<feBlend mode="normal" in="SourceGraphic" in2="effect1_dropShadow_826_51" result="shape"/>
<feColorMatrix in="SourceAlpha" type="matrix" values="0 0 0 0 0 0 0 0 0 0 0 0 0 0 0 0 0 0 127 0" result="hardAlpha"/>
<feOffset dy="4"/>
<feGaussianBlur stdDeviation="2"/>
<feComposite in2="hardAlpha" operator="arithmetic" k2="-1" k3="1"/>
<feColorMatrix type="matrix" values="0 0 0 0 0 0 0 0 0 0 0 0 0 0 0 0 0 0 0.25 0"/>
<feBlend mode="normal" in2="shape" result="effect2_innerShadow_826_51"/>
</filter>
</defs>
</svg>
