<svg width="86" height="86" viewBox="0 0 86 86" fill="none" xmlns="http://www.w3.org/2000/svg">
<g filter="url(#filter0_d_840_2)">
<circle cx="43" cy="39" r="39" fill="#785AEF"/>
</g>
<path d="M43.5003 17.0156C39.7394 17.0152 36.0441 18.0021 32.7842 19.8777C29.5242 21.7532 26.8137 24.4517 24.9236 27.7032C23.0336 30.9548 22.0302 34.6456 22.0139 38.4065C21.9975 42.1675 22.9687 45.8669 24.8304 49.1348L22.8968 55.9238C22.7729 56.3647 22.7686 56.8305 22.8844 57.2736C23.0002 57.7166 23.2319 58.1208 23.5557 58.4446C23.8795 58.7684 24.2837 59.0001 24.7268 59.1159C25.1698 59.2317 25.6357 59.2275 26.0765 59.1035L32.8656 57.1699C35.7245 58.7978 38.919 59.7473 42.2029 59.9454C45.4867 60.1435 48.7722 59.5847 51.806 58.3123C54.8398 57.0398 57.5409 55.0877 59.701 52.6063C61.861 50.1249 63.4224 47.1806 64.2646 44.0004C65.1069 40.8202 65.2076 37.4891 64.5589 34.2638C63.9102 31.0386 62.5295 28.0054 60.5233 25.3981C58.517 22.7908 55.9388 20.6791 52.9874 19.2257C50.0359 17.7724 46.7902 17.0162 43.5003 17.0156ZM43.5003 58.2656C39.9455 58.2739 36.4553 57.3159 33.4027 55.4941C33.2694 55.4263 33.1225 55.3896 32.973 55.3867H32.7367L25.6039 57.4277C25.4581 57.4668 25.3046 57.4669 25.1589 57.4279C25.0131 57.3888 24.8802 57.3121 24.7735 57.2054C24.6668 57.0987 24.59 56.9658 24.551 56.82C24.512 56.6742 24.512 56.5207 24.5511 56.375L26.5921 49.2422C26.6526 49.0175 26.6217 48.7781 26.5062 48.5762C24.283 44.8243 23.363 40.4425 23.8896 36.1132C24.4163 31.784 26.3599 27.7505 29.4177 24.6411C32.4756 21.5316 36.476 19.5207 40.7958 18.9217C45.1156 18.3227 49.5122 19.1692 53.3008 21.3293C57.0893 23.4894 60.0571 26.8419 61.7419 30.8644C63.4266 34.887 63.7336 39.3538 62.6152 43.5691C61.4968 47.7843 59.0156 51.5114 55.5582 54.1696C52.1009 56.8278 47.8615 58.2679 43.5003 58.2656ZM54.35 42.4746L49.9671 39.9824C49.5675 39.7535 49.1142 39.6349 48.6537 39.6386C48.1931 39.6424 47.7419 39.7685 47.346 40.0039L44.3812 41.7871C42.5953 40.8609 41.1395 39.4051 40.2132 37.6191L41.9964 34.6543C42.2319 34.2585 42.3579 33.8072 42.3617 33.3467C42.3655 32.8861 42.2468 32.4328 42.0179 32.0332L39.5257 27.6504C39.3188 27.292 39.0213 26.9942 38.6632 26.7868C38.305 26.5794 37.8986 26.4697 37.4847 26.4688C35.6651 26.4687 33.9196 27.1901 32.6309 28.4748C31.3422 29.7595 30.6154 31.5026 30.6097 33.3223C30.6069 35.694 31.0716 38.0431 31.9773 40.2351C32.883 42.4271 34.2118 44.4191 35.8879 46.0972C37.564 47.7753 39.5544 49.1066 41.7454 50.0148C43.9363 50.9231 46.2848 51.3906 48.6566 51.3906H48.6781C50.4977 51.3849 52.2409 50.6581 53.5256 49.3694C54.8102 48.0807 55.5316 46.3353 55.5316 44.5156C55.5306 44.1017 55.4209 43.6954 55.2136 43.3372C55.0062 42.979 54.7084 42.6816 54.35 42.4746ZM48.6781 49.6719H48.6566C44.3241 49.6662 40.1711 47.9411 37.1096 44.8756C34.0481 41.8101 32.3285 37.6547 32.3285 33.3223C32.3342 31.9585 32.8799 30.6525 33.8463 29.6901C34.8126 28.7278 36.1209 28.1875 37.4847 28.1875C37.5947 28.189 37.7024 28.2196 37.7967 28.2762C37.8911 28.3328 37.9687 28.4134 38.0218 28.5098L40.5355 32.8926C40.6088 33.0278 40.6472 33.1792 40.6472 33.333C40.6472 33.4868 40.6088 33.6382 40.5355 33.7734L38.516 37.125C38.4416 37.2428 38.3986 37.3777 38.391 37.5169C38.3835 37.656 38.4117 37.7948 38.473 37.9199C39.5919 40.413 41.5873 42.4085 44.0804 43.5273C44.2056 43.5886 44.3443 43.6168 44.4835 43.6093C44.6226 43.6018 44.7575 43.5588 44.8753 43.4844L48.2269 41.4648C48.3621 41.3915 48.5135 41.3531 48.6673 41.3531C48.8212 41.3531 48.9726 41.3915 49.1078 41.4648L53.4906 43.9785C53.5869 44.0316 53.6675 44.1093 53.7241 44.2036C53.7807 44.298 53.8113 44.4056 53.8128 44.5156C53.8129 45.8794 53.2726 47.1877 52.3102 48.1541C51.3479 49.1204 50.0419 49.6662 48.6781 49.6719Z" fill="white"/>
<defs>
<filter id="filter0_d_840_2" x="0" y="0" width="86" height="86" filterUnits="userSpaceOnUse" color-interpolation-filters="sRGB">
<feFlood flood-opacity="0" result="BackgroundImageFix"/>
<feColorMatrix in="SourceAlpha" type="matrix" values="0 0 0 0 0 0 0 0 0 0 0 0 0 0 0 0 0 0 127 0" result="hardAlpha"/>
<feOffset dy="4"/>
<feGaussianBlur stdDeviation="2"/>
<feComposite in2="hardAlpha" operator="out"/>
<feColorMatrix type="matrix" values="0 0 0 0 0 0 0 0 0 0 0 0 0 0 0 0 0 0 0.25 0"/>
<feBlend mode="normal" in2="BackgroundImageFix" result="effect1_dropShadow_840_2"/>
<feBlend mode="normal" in="SourceGraphic" in2="effect1_dropShadow_840_2" result="shape"/>
</filter>
</defs>
</svg>
