<svg width="192" height="238" viewBox="0 0 192 238" fill="none" xmlns="http://www.w3.org/2000/svg">
<path d="M183.541 153.56L183.063 153.414L183.061 153.421L183.541 153.56ZM159.065 237.242C159.199 237.484 159.503 237.571 159.745 237.438L163.683 235.261C163.925 235.127 164.013 234.823 163.879 234.581C163.745 234.34 163.441 234.252 163.2 234.386L159.699 236.321L157.764 232.82C157.63 232.578 157.326 232.49 157.084 232.624C156.843 232.757 156.755 233.062 156.889 233.303L159.065 237.242ZM118.542 67.5825L118.356 67.1187L118.542 67.5825ZM183.061 153.421L159.022 236.862L159.983 237.138L184.021 153.698L183.061 153.421ZM0.957435 27.2804C15.5155 16.151 26.6265 9.1124 35.1294 5.21827C43.6489 1.31659 49.4576 0.614705 53.469 2.00223C57.4464 3.37797 59.8096 6.86625 61.2969 11.7703C62.7853 16.6779 63.3603 22.8878 63.8392 29.53C64.3164 36.1495 64.6977 43.1865 65.8152 49.6653C66.9324 56.1423 68.795 62.129 72.2778 66.6336C75.7787 71.1618 80.8859 74.1522 88.3871 74.6793C95.8627 75.2047 105.707 73.2846 118.729 68.0464L118.356 67.1187C105.399 72.3308 95.7171 74.192 88.4572 73.6818C81.223 73.1734 76.3852 70.3112 73.0689 66.022C69.7344 61.7091 67.9077 55.9135 66.8006 49.4953C65.6938 43.0787 65.316 36.1076 64.8366 29.4581C64.3588 22.8312 63.7797 16.5112 62.2539 11.48C60.7269 6.44529 58.2157 2.58592 53.7959 1.05716C49.4102 -0.459817 43.299 0.376952 34.7131 4.30908C26.1106 8.24878 14.9309 15.3391 0.350101 26.4859L0.957435 27.2804ZM118.729 68.0464C144.66 57.6154 161.529 57.8284 172.295 63.8185C183.051 69.8037 187.891 81.6574 189.514 94.9561C191.135 108.244 189.527 122.853 187.506 134.159C186.496 139.809 185.384 144.625 184.525 148.028C184.096 149.73 183.73 151.078 183.471 152C183.342 152.461 183.24 152.815 183.17 153.054C183.135 153.173 183.108 153.263 183.09 153.324C183.081 153.354 183.074 153.377 183.069 153.392C183.067 153.399 183.065 153.405 183.064 153.409C183.064 153.41 183.063 153.412 183.063 153.413C183.063 153.414 183.063 153.414 183.541 153.56C184.019 153.705 184.02 153.705 184.02 153.703C184.02 153.702 184.021 153.701 184.021 153.699C184.023 153.695 184.024 153.689 184.027 153.681C184.032 153.665 184.039 153.641 184.048 153.61C184.066 153.548 184.094 153.456 184.129 153.335C184.2 153.093 184.304 152.735 184.434 152.27C184.695 151.34 185.063 149.984 185.495 148.273C186.359 144.852 187.475 140.012 188.49 134.335C190.519 122.99 192.145 108.267 190.506 94.835C188.869 81.4144 183.953 69.1612 172.781 62.9446C161.617 56.7329 144.383 56.6491 118.356 67.1187L118.729 68.0464Z" fill="black"/>
</svg>
