<svg width="30" height="30" viewBox="0 0 30 30" fill="none" xmlns="http://www.w3.org/2000/svg">
<path d="M24.375 4.21875H21.0938V2.8125C21.0938 2.68818 21.0444 2.56895 20.9565 2.48104C20.8685 2.39314 20.7493 2.34375 20.625 2.34375C20.5007 2.34375 20.3815 2.39314 20.2935 2.48104C20.2056 2.56895 20.1562 2.68818 20.1562 2.8125V4.21875H9.84375V2.8125C9.84375 2.68818 9.79436 2.56895 9.70646 2.48104C9.61855 2.39314 9.49932 2.34375 9.375 2.34375C9.25068 2.34375 9.13145 2.39314 9.04354 2.48104C8.95564 2.56895 8.90625 2.68818 8.90625 2.8125V4.21875H5.625C5.25204 4.21875 4.89435 4.36691 4.63063 4.63063C4.36691 4.89435 4.21875 5.25204 4.21875 5.625V24.375C4.21875 24.748 4.36691 25.1056 4.63063 25.3694C4.89435 25.6331 5.25204 25.7812 5.625 25.7812H24.375C24.748 25.7812 25.1056 25.6331 25.3694 25.3694C25.6331 25.1056 25.7812 24.748 25.7812 24.375V5.625C25.7812 5.25204 25.6331 4.89435 25.3694 4.63063C25.1056 4.36691 24.748 4.21875 24.375 4.21875ZM5.625 5.15625H8.90625V6.5625C8.90625 6.68682 8.95564 6.80605 9.04354 6.89396C9.13145 6.98186 9.25068 7.03125 9.375 7.03125C9.49932 7.03125 9.61855 6.98186 9.70646 6.89396C9.79436 6.80605 9.84375 6.68682 9.84375 6.5625V5.15625H20.1562V6.5625C20.1562 6.68682 20.2056 6.80605 20.2935 6.89396C20.3815 6.98186 20.5007 7.03125 20.625 7.03125C20.7493 7.03125 20.8685 6.98186 20.9565 6.89396C21.0444 6.80605 21.0938 6.68682 21.0938 6.5625V5.15625H24.375C24.4993 5.15625 24.6185 5.20564 24.7065 5.29354C24.7944 5.38145 24.8438 5.50068 24.8438 5.625V9.84375H5.15625V5.625C5.15625 5.50068 5.20564 5.38145 5.29354 5.29354C5.38145 5.20564 5.50068 5.15625 5.625 5.15625ZM24.375 24.8438H5.625C5.50068 24.8438 5.38145 24.7944 5.29354 24.7065C5.20564 24.6185 5.15625 24.4993 5.15625 24.375V10.7812H24.8438V24.375C24.8438 24.4993 24.7944 24.6185 24.7065 24.7065C24.6185 24.7944 24.4993 24.8438 24.375 24.8438ZM19.5586 14.6836C19.6414 14.7743 19.6854 14.8938 19.681 15.0165C19.6766 15.1392 19.6242 15.2553 19.5352 15.3398L14.0742 20.4961C13.9839 20.5772 13.8674 20.6229 13.7461 20.625C13.6279 20.6246 13.5145 20.5784 13.4297 20.4961L10.4531 17.6836C10.3649 17.5955 10.3144 17.4766 10.3122 17.352C10.31 17.2273 10.3563 17.1067 10.4414 17.0156C10.5275 16.9282 10.6444 16.8779 10.7671 16.8757C10.8898 16.8735 11.0085 16.9196 11.0977 17.0039L13.7461 19.5117L18.9023 14.6602C18.9465 14.6177 18.9987 14.5845 19.056 14.5627C19.1132 14.5408 19.1742 14.5307 19.2354 14.5329C19.2967 14.535 19.3568 14.5495 19.4123 14.5754C19.4678 14.6013 19.5176 14.6381 19.5586 14.6836Z" fill="black"/>
</svg>
