<svg width="30" height="31" viewBox="0 0 30 31" fill="none" xmlns="http://www.w3.org/2000/svg">
<path d="M28.9458 14.9492C28.8536 14.7865 28.7292 14.6443 28.58 14.5314C28.4309 14.4186 28.2603 14.3374 28.0786 14.293C26.854 13.996 25.5811 13.9561 24.3403 14.1758C24.8677 11.8555 24.5278 10.0391 24.1763 8.98438C24.0705 8.65253 23.8454 8.37173 23.5444 8.19637C23.2435 8.02101 22.8882 7.96357 22.5473 8.03516C21.3384 8.30877 20.1954 8.81853 19.1841 9.53516C18.4687 7.81964 17.3174 6.3209 15.8442 5.1875C15.6008 5.00494 15.3047 4.90625 15.0005 4.90625C14.6962 4.90625 14.4001 5.00494 14.1567 5.1875C12.6836 6.3209 11.5323 7.81964 10.8169 9.53516C9.80552 8.81853 8.66254 8.30877 7.4536 8.03516C7.11274 7.96357 6.75745 8.02101 6.45652 8.19637C6.1556 8.37173 5.93045 8.65253 5.82469 8.98438C5.47313 10.0391 5.13329 11.8555 5.66063 14.1758C4.41983 13.9561 3.14696 13.996 1.92235 14.293C1.74069 14.3374 1.57004 14.4186 1.42091 14.5314C1.27178 14.6443 1.14731 14.7865 1.05516 14.9492C0.869349 15.2765 0.81888 15.6634 0.914537 16.0273C1.31297 17.4336 2.53172 20.1289 6.22313 22.2617C9.91454 24.3945 13.2309 24.4062 15.0005 24.4062C16.77 24.4062 20.063 24.4063 23.7778 22.2617C27.4927 20.1172 28.688 17.4336 29.0864 16.0273C29.1821 15.6634 29.1316 15.2765 28.9458 14.9492ZM22.7466 8.96094C22.8583 8.93481 22.9757 8.95164 23.0756 9.00808C23.1754 9.06452 23.2504 9.15646 23.2856 9.26563C23.6255 10.3203 23.9653 12.1953 23.2505 14.6094C23.2388 14.6328 23.2388 14.6563 23.227 14.6797C22.9461 15.6071 22.5525 16.4965 22.0552 17.3281C21.0525 19.0466 19.718 20.5484 18.1294 21.7461L17.8364 21.957C19.02 20.3984 20.1567 18.0078 20.1567 14.5625C20.1686 13.1624 19.9549 11.7696 19.5239 10.4375C20.4807 9.72143 21.5795 9.218 22.7466 8.96094ZM14.7192 5.9375C14.8004 5.87665 14.8991 5.84375 15.0005 5.84375C15.1019 5.84375 15.2006 5.87665 15.2817 5.9375C16.4653 6.82813 19.2192 9.42969 19.2192 14.5625C19.2192 17.2695 18.4692 19.5898 17.0044 21.4766C16.4415 22.2151 15.7652 22.8599 15.0005 23.3867C14.2358 22.8599 13.5594 22.2151 12.9966 21.4766C11.5317 19.5898 10.7817 17.2695 10.7817 14.5625C10.7817 9.42969 13.5356 6.82813 14.7192 5.9375ZM6.71532 9.26563C6.75054 9.15646 6.82552 9.06452 6.92539 9.00808C7.02525 8.95164 7.14269 8.93481 7.25438 8.96094C8.4215 9.218 9.52023 9.72143 10.477 10.4375C10.0461 11.7696 9.83239 13.1624 9.84422 14.5625C9.84422 18.0078 10.9809 20.3984 12.1645 21.957L11.8716 21.7461C10.2829 20.5484 8.94844 19.0466 7.94579 17.3281C7.44819 16.4925 7.05464 15.5991 6.77391 14.668L6.75047 14.6094C6.03563 12.1953 6.37547 10.3203 6.71532 9.26563ZM1.81688 15.7695C1.80087 15.7108 1.79677 15.6494 1.80482 15.589C1.81287 15.5286 1.83291 15.4705 1.86376 15.418C1.92861 15.3132 2.02812 15.2344 2.14501 15.1953C3.39373 14.9066 4.6914 14.9026 5.94188 15.1836C6.24583 16.0929 6.64245 16.9686 7.12547 17.7969C8.63719 20.4219 10.8403 22.2969 12.6216 23.375C10.5294 23.1701 8.50646 22.5145 6.69188 21.4531C3.28172 19.4844 2.18016 17.0469 1.81688 15.7695ZM28.1841 15.7695C27.8208 17.0469 26.7192 19.4844 23.3091 21.4531C21.4945 22.5145 19.4715 23.1701 17.3794 23.375C19.1606 22.2969 21.3638 20.4219 22.8755 17.7969C23.3585 16.9686 23.7551 16.0929 24.0591 15.1836C25.3095 14.9026 26.6072 14.9066 27.8559 15.1953C27.9728 15.2344 28.0723 15.3132 28.1372 15.418C28.168 15.4705 28.1881 15.5286 28.1961 15.589C28.2042 15.6494 28.2001 15.7108 28.1841 15.7695Z" fill="black"/>
</svg>
