<svg width="30" height="31" viewBox="0 0 30 31" fill="none" xmlns="http://www.w3.org/2000/svg">
<path d="M15 3.78125C12.6823 3.78125 10.4166 4.46854 8.48942 5.75622C6.56228 7.04389 5.06026 8.87411 4.17329 11.0154C3.28633 13.1568 3.05426 15.513 3.50643 17.7862C3.9586 20.0594 5.0747 22.1475 6.7136 23.7864C8.35249 25.4253 10.4406 26.5414 12.7138 26.9936C14.987 27.4457 17.3433 27.2137 19.4846 26.3267C21.6259 25.4397 23.4561 23.9377 24.7438 22.0106C26.0315 20.0835 26.7188 17.8177 26.7188 15.5C26.7126 12.3939 25.4759 9.41678 23.2796 7.22043C21.0832 5.02408 18.1061 3.78744 15 3.78125ZM15 26.2812C12.8677 26.2812 10.7832 25.6489 9.01026 24.4643C7.2373 23.2796 5.85544 21.5958 5.03943 19.6258C4.22342 17.6558 4.00992 15.488 4.42591 13.3967C4.84191 11.3053 5.86873 9.38429 7.37651 7.8765C8.88429 6.36872 10.8053 5.34191 12.8967 4.92591C14.988 4.50991 17.1558 4.72342 19.1258 5.53942C21.0958 6.35543 22.7796 7.73729 23.9643 9.51026C25.1489 11.2832 25.7813 13.3677 25.7813 15.5C25.7782 18.3584 24.6413 21.0989 22.6201 23.1201C20.5989 25.1413 17.8584 26.2781 15 26.2812ZM16.4063 21.125C16.4063 21.2493 16.3569 21.3685 16.269 21.4565C16.1811 21.5444 16.0618 21.5938 15.9375 21.5938H15C14.8757 21.5938 14.7565 21.5444 14.6685 21.4565C14.5806 21.3685 14.5313 21.2493 14.5313 21.125V15.0312H14.0625C13.9382 15.0312 13.819 14.9819 13.731 14.894C13.6431 14.806 13.5938 14.6868 13.5938 14.5625C13.5938 14.4382 13.6431 14.319 13.731 14.231C13.819 14.1431 13.9382 14.0938 14.0625 14.0938H15C15.1243 14.0938 15.2436 14.1431 15.3315 14.231C15.4194 14.319 15.4688 14.4382 15.4688 14.5625V20.6562H15.9375C16.0618 20.6562 16.1811 20.7056 16.269 20.7935C16.3569 20.8815 16.4063 21.0007 16.4063 21.125ZM13.8281 10.3438C13.8281 10.1583 13.8831 9.97707 13.9861 9.8229C14.0891 9.66873 14.2356 9.54857 14.4069 9.47761C14.5782 9.40666 14.7667 9.38809 14.9485 9.42426C15.1304 9.46044 15.2974 9.54973 15.4285 9.68084C15.5597 9.81195 15.6489 9.979 15.6851 10.1609C15.7213 10.3427 15.7027 10.5312 15.6318 10.7025C15.5608 10.8738 15.4406 11.0202 15.2865 11.1233C15.1323 11.2263 14.9511 11.2812 14.7656 11.2812C14.517 11.2812 14.2785 11.1825 14.1027 11.0067C13.9269 10.8308 13.8281 10.5924 13.8281 10.3438Z" fill="black"/>
</svg>
