<svg width="30" height="30" viewBox="0 0 30 30" fill="none" xmlns="http://www.w3.org/2000/svg">
<path d="M23.4492 26.7188H16.3828C17.705 25.6382 18.9321 24.4463 20.0508 23.1562C23.1914 19.5469 24.8555 15.75 24.8555 12.1875C24.8555 9.57678 23.8184 7.07298 21.9723 5.22692C20.1262 3.38086 17.6224 2.34375 15.0117 2.34375C12.401 2.34375 9.8972 3.38086 8.05114 5.22692C6.20508 7.07298 5.16797 9.57678 5.16797 12.1875C5.16797 15.75 6.83203 19.5469 9.97266 23.1562C11.0943 24.4435 12.3212 25.6351 13.6406 26.7188H6.57422C6.4499 26.7188 6.33067 26.7681 6.24276 26.856C6.15485 26.944 6.10547 27.0632 6.10547 27.1875C6.10547 27.3118 6.15485 27.431 6.24276 27.519C6.33067 27.6069 6.4499 27.6562 6.57422 27.6562H23.4492C23.5735 27.6562 23.6928 27.6069 23.7807 27.519C23.8686 27.431 23.918 27.3118 23.918 27.1875C23.918 27.0632 23.8686 26.944 23.7807 26.856C23.6928 26.7681 23.5735 26.7188 23.4492 26.7188ZM10.6641 22.5234C8.58984 20.1328 6.10547 16.3945 6.10547 12.1875C6.10547 9.82542 7.0438 7.56008 8.71405 5.88983C10.3843 4.21958 12.6496 3.28125 15.0117 3.28125C17.3738 3.28125 19.6391 4.21958 21.3094 5.88983C22.9796 7.56008 23.918 9.82542 23.918 12.1875C23.918 16.3945 21.4453 20.1328 19.3594 22.5234C18.0571 24.0314 16.5998 25.3983 15.0117 26.6016C13.4263 25.3951 11.9694 24.0285 10.6641 22.5234ZM19.2305 12.1875C19.2305 11.3531 18.983 10.5375 18.5195 9.84369C18.0559 9.14992 17.397 8.60919 16.6262 8.28988C15.8553 7.97058 15.007 7.88703 14.1887 8.04981C13.3703 8.21259 12.6186 8.61439 12.0286 9.20439C11.4386 9.7944 11.0368 10.5461 10.874 11.3645C10.7112 12.1828 10.7948 13.0311 11.1141 13.8019C11.4334 14.5728 11.9741 15.2317 12.6679 15.6953C13.3617 16.1588 14.1773 16.4062 15.0117 16.4062C16.1306 16.4062 17.2037 15.9618 17.9948 15.1706C18.786 14.3794 19.2305 13.3064 19.2305 12.1875ZM11.7305 12.1875C11.7305 11.5385 11.9229 10.9041 12.2835 10.3645C12.644 9.82494 13.1565 9.40437 13.756 9.15602C14.3556 8.90767 15.0154 8.84269 15.6519 8.9693C16.2884 9.09591 16.873 9.40841 17.3319 9.86731C17.7908 10.3262 18.1033 10.9109 18.2299 11.5474C18.3565 12.1839 18.2915 12.8436 18.0432 13.4432C17.7948 14.0427 17.3743 14.5552 16.8347 14.9158C16.2951 15.2763 15.6607 15.4688 15.0117 15.4688C14.1424 15.4657 13.3096 15.119 12.6949 14.5043C12.0803 13.8896 11.7336 13.0568 11.7305 12.1875Z" fill="black"/>
</svg>
