<svg width="30" height="30" viewBox="0 0 30 30" fill="none" xmlns="http://www.w3.org/2000/svg">
<path d="M15 3.04688C12.9157 3.04722 10.8677 3.59258 9.05918 4.62886C7.2507 5.66513 5.74464 7.15629 4.69043 8.95437C3.63621 10.7525 3.07051 12.7949 3.04944 14.8792C3.02837 16.9634 3.55267 19.0169 4.57032 20.8359L3.53907 24.4336C3.45486 24.7152 3.44839 25.0143 3.52036 25.2992C3.59233 25.5842 3.74005 25.8443 3.94786 26.0521C4.15568 26.26 4.41584 26.4077 4.70079 26.4796C4.98573 26.5516 5.28484 26.5451 5.56641 26.4609L9.16407 25.4297C10.7582 26.3222 12.5356 26.8374 14.3599 26.9358C16.1842 27.0341 18.0068 26.713 19.6876 25.9971C21.3685 25.2811 22.8628 24.1894 24.0559 22.8059C25.2489 21.4223 26.109 19.7836 26.5699 18.0158C27.0309 16.2479 27.0804 14.3979 26.7148 12.6079C26.3492 10.8179 25.5781 9.13558 24.4609 7.69008C23.3436 6.24459 21.9099 5.07443 20.2698 4.26952C18.6297 3.4646 16.827 3.04634 15 3.04688ZM15 25.5469C13.107 25.5463 11.2491 25.0363 9.6211 24.0703C9.50919 24.0106 9.38465 23.9785 9.25782 23.9766C9.19441 23.9728 9.13084 23.9807 9.07032 24L5.17969 25.1133C5.13897 25.1258 5.0956 25.127 5.05425 25.1168C5.01289 25.1065 4.97512 25.0851 4.94499 25.055C4.91486 25.0249 4.89352 24.9871 4.88325 24.9458C4.87298 24.9044 4.87418 24.861 4.88672 24.8203L6 20.9297C6.02629 20.8379 6.03361 20.7418 6.02152 20.6471C6.00943 20.5524 5.97819 20.4611 5.92969 20.3789C4.7429 18.3772 4.25142 16.0393 4.53181 13.7292C4.81219 11.4191 5.8487 9.26662 7.47988 7.60699C9.11105 5.94736 11.2453 4.87379 13.5502 4.5535C15.8551 4.23322 18.2012 4.6842 20.2231 5.8362C22.245 6.9882 23.8291 8.77654 24.7287 10.9226C25.6283 13.0688 25.7929 15.4521 25.1969 17.7015C24.6008 19.9509 23.2775 21.9401 21.4332 23.3591C19.5889 24.7781 17.327 25.5473 15 25.5469ZM21.0352 16.9688L18.6328 15.5977C18.38 15.455 18.0938 15.382 17.8035 15.3861C17.5132 15.3903 17.2292 15.4713 16.9805 15.6211L15.4805 16.5234C14.628 16.0698 13.9302 15.3721 13.4766 14.5195L14.3789 13.0195C14.5287 12.7708 14.6097 12.4868 14.6139 12.1965C14.618 11.9062 14.545 11.6201 14.4023 11.3672L13.0313 8.96484C12.8981 8.73425 12.7069 8.54258 12.4766 8.40893C12.2463 8.27528 11.985 8.20432 11.7188 8.20313C10.6641 8.20312 9.65239 8.62129 8.90551 9.36598C8.15863 10.1107 7.73748 11.1211 7.73438 12.1758C7.73284 13.5002 7.99238 14.812 8.49817 16.0361C9.00395 17.2602 9.74605 18.3726 10.682 19.3097C11.618 20.2468 12.7296 20.9901 13.9531 21.4974C15.1766 22.0046 16.488 22.2656 17.8125 22.2656H17.8242C18.8789 22.2625 19.8893 21.8414 20.634 21.0945C21.3787 20.3476 21.7969 19.3359 21.7969 18.2812C21.7957 18.015 21.7247 17.7537 21.5911 17.5234C21.4574 17.2931 21.2658 17.1019 21.0352 16.9688ZM17.8242 20.8594H17.8125C15.5115 20.8563 13.3058 19.94 11.6799 18.3119C10.0539 16.6837 9.14063 14.4768 9.14063 12.1758C9.14373 11.4941 9.41672 10.8413 9.89988 10.3603C10.383 9.87938 11.037 9.60937 11.7188 9.60938C11.7549 9.61234 11.7885 9.62913 11.8125 9.65625L13.1836 12.0586C13.2024 12.0952 13.2112 12.1362 13.2092 12.1774C13.2071 12.2185 13.1943 12.2584 13.1719 12.293L12.082 14.1328C12.0203 14.2275 11.9837 14.3363 11.9755 14.449C11.9673 14.5618 11.9878 14.6747 12.0352 14.7773C12.6758 16.1913 13.8087 17.3242 15.2227 17.9648C15.3253 18.0122 15.4382 18.0327 15.551 18.0245C15.6637 18.0163 15.7725 17.9797 15.8672 17.918L17.707 16.8281C17.7416 16.8057 17.7815 16.7929 17.8226 16.7908C17.8638 16.7888 17.9048 16.7976 17.9414 16.8164L20.3438 18.1875C20.3709 18.2115 20.3877 18.2451 20.3906 18.2812C20.3906 18.963 20.1206 19.617 19.6397 20.1001C19.1587 20.5833 18.506 20.8563 17.8242 20.8594Z" fill="black"/>
</svg>
